<?xml version="1.0" encoding="UTF-8"?>
<svg width="200px" height="200px" viewBox="0 0 200 200" version="1.1" xmlns="http://www.w3.org/2000/svg" xmlns:xlink="http://www.w3.org/1999/xlink">
    <!-- Generator: Sketch 55.2 (78181) - https://sketchapp.com -->
    <title>Custom Preset</title>
    <desc>Created with Sketch.</desc>
    <g id="Custom-Preset" stroke="none" stroke-width="1" fill="none" fill-rule="evenodd">
        <g id="Group-2" transform="translate(0.000000, 22.000000)">
            <g id="plant-svgrepo-com-2" transform="translate(23.000000, 0.000000)" fill-rule="nonzero">
                <path d="M103.828028,42.91563 C93.0849626,44.6247764 82.9775561,37.383085 81.2521971,26.7409685 C79.5268382,16.0988521 86.8372226,6.08642111 97.5802877,4.37727472 C128.75679,-0.582576922 152,45 152,45 C152,45 127.543317,39.1430621 103.828028,42.91563 Z" id="Path" fill="#4FC497"></path>
                <path d="M34.2100906,40.6272518 C41.1703663,41.7526077 47.7189863,36.9839507 48.8366454,29.9757423 C49.9543044,22.9675339 45.2182626,16.3738162 38.2579869,15.2484602 C18.0591473,11.9821379 3,42 3,42 C3,42 18.8452034,38.1427883 34.2100906,40.6272518 Z" id="Path" fill="#4FC497"></path>
                <g id="Group" fill="#333333">
                    <path d="M154.360895,42.6529853 C154.11838,42.1747207 148.308191,30.8206136 138.532406,19.9150137 C132.714205,13.4245421 126.690775,8.45108059 120.63006,5.13237179 C112.822127,0.8571337 104.939314,-0.683498168 97.1982505,0.554345238 C91.2370676,1.50719322 86.0058946,4.71454212 82.4673956,9.58492674 C80.0145129,12.9613095 78.580994,16.857065 78.2503479,20.9065156 C73.6619781,22.1689011 69.6319781,23.9626236 66.3997813,26.2060806 C64.3000398,27.663576 62.6064414,29.2827427 61.349493,31.0003846 C59.0959841,28.8382234 55.8921372,27.0288553 52.0682903,25.8308929 C51.1952982,19.0701511 45.9530318,13.3846612 38.8572366,12.2498947 C16.6718986,8.70233059 0.987932406,39.0735165 0.330954274,40.3678068 C-0.210775348,41.4350824 -0.0798111332,42.7189423 0.666222664,43.6564515 C1.25879722,44.4006914 2.15335984,44.8188278 3.08151093,44.8188278 C3.32217694,44.8188278 3.565,44.7906044 3.805666,44.7329304 C3.95850895,44.696424 19.2314016,41.0887317 33.8291352,43.4217674 C38.01167,44.0911538 42.2040656,43.0978114 45.6356362,40.627033 C48.5587575,38.522239 50.6273757,35.5578571 51.592505,32.1532509 C56.248668,33.9230449 58.7588668,36.6134753 58.7588668,38.3243681 L58.732674,63.4978388 C58.730825,65.1921658 60.1091849,66.5671383 61.8107952,66.5689789 C61.8120278,66.5689789 61.8129523,66.5689789 61.8141849,66.5689789 C63.5145626,66.5689789 64.8938469,65.197381 64.8956958,63.5045879 L64.9218887,38.3280495 C64.9218887,34.599794 69.6803579,29.9208379 78.6219781,27.1825504 C79.7377932,32.7661905 82.8769284,37.6513004 87.5355567,41.005902 C92.4271471,44.5280037 98.4043539,45.9446978 104.365845,44.9900092 C126.949006,41.3801694 150.650139,46.9625824 150.885875,47.0184158 C151.126233,47.0760897 151.369056,47.1043132 151.61003,47.1043132 C152.538181,47.1043132 153.432744,46.6861767 154.02501,45.9419368 C154.77166,45.0041209 154.902624,43.7208745 154.360895,42.6529853 Z M42.0237972,35.6551053 C39.9255964,37.1659799 37.3633201,37.77125 34.8062823,37.3638507 C25.1552982,35.8204579 15.4445328,36.6257463 9.19091451,37.5233745 C14.0633996,30.141717 23.7747813,18.1019643 35.286998,18.1019643 C36.1411928,18.1019643 37.0074056,18.1685348 37.8800895,18.3078114 C41.4361531,18.8765751 44.230159,21.3157555 45.4165408,24.4531593 C41.9957555,24.0285806 38.5740457,23.9288782 35.2198211,24.1654029 C33.5222167,24.2850458 32.2433897,25.7520513 32.3635686,27.4420833 C32.4837475,29.1324222 33.9560934,30.4129075 35.6549304,30.2855952 C38.9216402,30.0558196 42.2666203,30.1883471 45.608827,30.670293 C44.9959145,32.6698626 43.7546819,34.4086722 42.0237972,35.6551053 Z M103.389006,38.9317857 C99.055169,39.624794 94.7059245,38.5955586 91.1477038,36.0336676 C87.7019583,33.5527656 85.4003777,29.9199176 84.6256859,25.7726053 C84.8312227,25.737326 85.0336779,25.700206 85.2422962,25.6670742 C92.7753579,24.4626694 100.292704,24.4154258 107.584175,25.525957 C109.263598,25.7824222 110.838867,24.6326236 111.096173,22.9576236 C111.353479,21.2826236 110.198529,19.7171429 108.516332,19.4612912 C100.717952,18.2728388 92.6936978,18.3047436 84.6589662,19.5502564 C85.1156461,17.2798031 86.0573559,15.1130403 87.4612922,13.1806548 C90.034662,9.63799908 93.8397117,7.30557692 98.1757058,6.6122619 C120.125,3.10611264 138.380795,28.1185256 145.57335,39.7260302 C136.579344,38.2154625 119.922237,36.2882921 103.389006,38.9317857 Z" id="Shape"></path>
                    <path d="M127.749274,25.0237637 C124.532793,23.6267033 121.210924,22.4391712 117.875497,21.4933791 C116.240139,21.0304533 114.533907,21.974098 114.067982,23.6040018 C113.602058,25.2335989 114.551163,26.9306868 116.188062,27.394533 C119.259712,28.2651648 122.31996,29.3594368 125.28499,30.6475916 C125.686203,30.8215339 126.104364,30.9043636 126.515746,30.9043636 C127.703668,30.9043636 128.836123,30.215957 129.341799,29.0624771 C130.021889,27.509881 129.309443,25.7014332 127.749274,25.0237637 Z" id="Path"></path>
                </g>
            </g>
            <path d="M100,178 C155.228475,178 200,133.228475 200,78 C200,22.771525 127.228475,89 72,89 C16.771525,89 0,22.771525 0,78 C0,133.228475 44.771525,178 100,178 Z" id="Oval" stroke="#979797" fill="#FFD37E"></path>
        </g>
    </g>
</svg>