<?xml version="1.0" encoding="UTF-8"?>
<svg width="200px" height="200px" viewBox="0 0 200 200" version="1.1" xmlns="http://www.w3.org/2000/svg" xmlns:xlink="http://www.w3.org/1999/xlink">
    <!-- Generator: Sketch 55.2 (78181) - https://sketchapp.com -->
    <title>Custom Preset</title>
    <desc>Created with Sketch.</desc>
    <g id="Custom-Preset" stroke="none" stroke-width="1" fill="none" fill-rule="evenodd">
        <g id="coins-svgrepo-com" fill-rule="nonzero">
            <circle id="Oval" fill="#4AB8A1" cx="100" cy="100" r="100"></circle>
            <path d="M196,125.300341 C195.943578,125.157086 195.894993,125.012274 195.8276,124.875247 C195.736698,124.60898 195.63169,124.34427 195.506308,124.081117 C195.413839,123.810178 195.307264,123.542354 195.178747,123.277643 C195.089413,123.012933 194.982838,122.748223 194.857456,122.48507 C194.764986,122.214131 194.658412,121.946307 194.531462,121.681597 C194.44056,121.415329 194.333986,121.150619 194.208603,120.885909 C194.119269,120.621199 194.014261,120.359603 193.888879,120.101121 C193.797977,119.827068 193.689835,119.554572 193.559751,119.288305 C193.467282,119.022038 193.362274,118.757328 193.236892,118.494175 C193.14599,118.224793 193.037848,117.956969 192.910899,117.692258 C192.81843,117.424434 192.713422,117.159724 192.58804,116.898128 C192.497138,116.627189 192.388996,116.359365 192.262047,116.094655 C192.169577,115.82683 192.06457,115.56212 191.939188,115.300524 C191.848286,115.029585 191.740144,114.761761 191.613194,114.497051 C191.520725,114.230783 191.415718,113.966073 191.290335,113.704477 C191.199433,113.433539 191.091291,113.164157 190.964342,112.899447 C190.87344,112.634737 190.766865,112.370026 190.641483,112.105316 C190.550581,111.837492 190.444006,111.571224 190.317057,111.308071 C190.226155,111.037133 190.118013,110.769308 189.991064,110.504598 C189.900162,110.236774 189.793587,109.972063 189.669772,109.710468 C189.577303,109.439529 189.469161,109.171704 189.342211,108.906994 C189.252877,108.643841 189.149436,108.383802 189.024054,108.125321 C188.933152,107.851268 188.82501,107.580329 188.696494,107.314062 C188.604024,107.046237 188.49745,106.781527 188.372067,106.518374 C188.281165,106.248992 188.173023,105.981168 188.047641,105.716458 C187.955172,105.450191 187.848597,105.18548 187.723215,104.922327 C187.632313,104.654503 187.527306,104.386678 187.398789,104.121968 C187.307887,103.852587 187.199745,103.584762 187.074363,103.320052 C186.981894,103.053785 186.875319,102.789075 186.749937,102.527479 C186.659035,102.25654 186.550893,101.988715 186.425511,101.724005 C186.333041,101.456181 186.226467,101.191471 186.101084,100.928318 C186.01175,100.658936 185.90204,100.391112 185.776658,100.126401 C185.684189,99.8601341 185.577614,99.5954239 185.453799,99.3338279 C185.362897,99.0628893 185.253188,98.7950648 185.127806,98.5303547 C185.035337,98.2640873 184.930329,97.9993772 184.804947,97.7362241 C184.714045,97.4683996 184.60747,97.2021323 184.480521,96.9389793 C184.389619,96.672712 184.284611,96.4080018 184.159229,96.1479629 C184.068327,95.8770243 183.961753,95.6076427 183.833236,95.3413754 C183.740767,95.0719938 183.634192,94.8041694 183.507243,94.5394592 C183.416341,94.2731919 183.309766,94.0084817 183.184384,93.7468858 C183.091914,93.4759471 182.98534,93.2081227 182.85839,92.9434125 C182.767488,92.6771452 182.660913,92.412435 182.535531,92.1492819 C182.443062,91.8799003 182.336487,91.6120759 182.209538,91.3473657 C182.118636,91.0810984 182.012061,90.8163882 181.886679,90.5547923 C181.795777,90.2854107 181.689202,90.0191434 181.562253,89.7544332 C181.471351,89.4850517 181.363209,89.2172272 181.23626,88.952517 C181.145358,88.6862497 181.038783,88.4215395 180.913401,88.1599436 C180.822499,87.8890049 180.714357,87.6211805 180.587407,87.3564703 C180.496505,87.090203 180.38993,86.8254928 180.264548,86.5623397 C180.173646,86.2929582 180.065504,86.0251337 179.940122,85.7604235 C179.847653,85.4941562 179.741078,85.229446 179.615696,84.9678501 C179.524794,84.6969114 179.416652,84.429087 179.29127,84.1643768 C179.200368,83.9012237 179.09536,83.6411849 178.973113,83.3827032 C178.880644,83.1086503 178.774069,82.8392687 178.645552,82.5714443 C178.553083,82.3020627 178.446508,82.0342383 178.317992,81.7710852 C178.22709,81.5032608 178.122082,81.2385506 177.9967,80.9753975 C177.904231,80.706016 177.797656,80.4397487 177.669139,80.1750385 C177.578237,79.907214 177.47323,79.6425038 177.347848,79.3793508 C177.255378,79.1099692 177.148804,78.8437019 177.020287,78.5789917 C176.930952,78.3111673 176.824377,78.0464571 176.698995,77.783304 C176.606526,77.5139225 176.499951,77.246098 176.371435,76.982945 C176.2821,76.7151205 176.175525,76.4504103 176.050143,76.1888144 C175.957674,75.9194328 175.852666,75.6531655 175.72415,75.3900125 C175.633248,75.122188 175.526673,74.8559207 175.399724,74.5927676 C175.308822,74.3249432 175.202247,74.0586759 175.075297,73.7955228 C174.984395,73.5276984 174.877821,73.2614311 174.750871,72.998278 C174.659969,72.7304536 174.553394,72.4641863 174.426445,72.2010332 C174.338678,71.9378801 174.23367,71.6762842 174.108288,71.4162453 C174.017386,71.1437495 173.909244,70.8728109 173.77916,70.6049864 C173.689825,70.337162 173.581683,70.0708947 173.454734,69.8077416 C173.365399,69.5399172 173.257257,69.2736499 173.130308,69.0104968 C173.040973,68.7426724 172.932831,68.4764051 172.805882,68.213252 C172.716547,67.9454276 172.608405,67.6791603 172.481456,67.4160072 C172.392121,67.1481828 172.285546,66.8819154 172.157029,66.6187624 C172.067695,66.3509379 171.96112,66.0846706 171.832603,65.8215175 C171.743269,65.5536931 171.636694,65.2874258 171.508177,65.0242727 C171.418842,64.7564483 171.312268,64.490181 171.183751,64.2270279 C171.094416,63.9592035 170.987841,63.6944933 170.862459,63.4313402 C170.76999,63.1619587 170.663415,62.8956914 170.534899,62.6309812 C170.445564,62.3631567 170.338989,62.0968894 170.210473,61.8337364 C170.121138,61.5659119 170.014563,61.2996446 169.887614,61.0364915 C169.796712,60.7686671 169.690137,60.5023998 169.563188,60.2392467 C169.472285,59.9745365 169.368845,59.7129406 169.24503,59.4529017 C169.154128,59.180406 169.045986,58.9110244 168.915902,58.6432 C168.826568,58.3753755 168.718426,58.1091082 168.591476,57.8459552 C168.502142,57.5781307 168.394,57.3118634 168.26705,57.0487103 C168.177715,56.7808859 168.071141,56.5161757 167.944191,56.2530226 C167.853289,55.9836411 167.746715,55.7173738 167.618198,55.4526636 C167.528863,55.1848392 167.420721,54.9185718 167.293772,54.6554188 C167.204437,54.3875943 167.096295,54.121327 166.969346,53.858174 C166.880011,53.5903495 166.771869,53.3240822 166.644919,53.0609291 C166.555585,52.7931047 166.447443,52.5268374 166.320493,52.2636843 C166.231159,51.9958599 166.124584,51.7295926 165.996067,51.4664395 C165.906732,51.1986151 165.800158,50.9323478 165.671641,50.6691947 C165.582306,50.4013703 165.475732,50.135103 165.347215,49.8719499 C165.25788,49.6041254 165.151305,49.3378581 165.022789,49.0747051 C164.933454,48.8068806 164.826879,48.5421704 164.701497,48.2790174 C164.610595,48.0143072 164.505588,47.7511541 164.381773,47.4911153 C164.290871,47.2186195 164.181162,46.9492379 164.052645,46.6814135 C163.96331,46.4135891 163.853601,46.1473218 163.728219,45.8841687 C163.638884,45.6163443 163.530742,45.3500769 163.403793,45.0869239 C163.314458,44.8190994 163.206316,44.5528321 163.079366,44.2896791 C162.990032,44.0218546 162.88189,43.7555873 162.75494,43.4924342 C162.665606,43.2246098 162.557464,42.9583425 162.430514,42.6951894 C160.02788,35.532443 144.253247,30 125.145017,30 C104.369205,30 87.5303915,36.5352275 87.5303915,44.5979886 L87.4849405,44.5979886 L87.4849405,53.8519455 C84.5196542,55.9384846 82.8285634,58.3364476 82.8285634,60.8885653 L82.7831124,60.8885653 L82.7831124,77.0436726 C82.7831124,77.9436873 83.0056656,78.8203451 83.405321,79.670532 C83.4930884,79.9399135 83.6059323,80.2046237 83.7297471,80.4677768 C83.8175146,80.7356012 83.9287912,81.0018685 84.0541732,81.2650216 C84.1419407,81.5359603 84.2547846,81.8022276 84.3785994,82.0669378 C84.4663668,82.3347622 84.5792107,82.5979153 84.7030255,82.8610684 C84.790793,83.132007 84.9036369,83.3982743 85.0274517,83.6629845 C85.1136519,83.9276947 85.2249285,84.1892907 85.347176,84.4477724 C85.4365107,84.7218253 85.5493546,84.9912069 85.6747367,85.2590313 C85.7625041,85.5268557 85.875348,85.7900088 85.9991628,86.0531619 C86.0869303,86.3241005 86.1997742,86.5903678 86.323589,86.855078 C86.4113564,87.1229025 86.5242003,87.3876127 86.6480151,87.6492086 C86.7357826,87.9201473 86.8486264,88.1864146 86.9724413,88.4511248 C87.0602087,88.7189492 87.1730526,88.9821023 87.2968674,89.2452554 C87.3470202,89.4056386 87.4191149,89.5597934 87.4833732,89.7186195 L87.4833732,92.8001575 L87.4833732,93.2595076 C82.9225999,92.4965194 77.8979129,92.071426 72.6161926,92.071426 C51.8403812,92.071426 35,98.6066535 35,106.669415 C35,106.906097 35.0188073,107.141222 35.0470183,107.374789 L35.0470183,122.824522 C35.0470183,123.721422 35.2695715,124.59808 35.6676596,125.445153 C35.7554271,125.712977 35.8682709,125.977687 35.9920857,126.24084 C36.0798532,126.511779 36.1911298,126.776489 36.3165119,127.0412 C36.4042793,127.310581 36.5171232,127.576848 36.640938,127.841559 C36.7287055,128.109383 36.8415494,128.374093 36.9653642,128.637246 C37.0531316,128.906628 37.1659755,129.174452 37.2897903,129.439162 C37.3775578,129.703873 37.4888344,129.965469 37.6095146,130.22395 C37.6988494,130.498003 37.8116932,130.767385 37.9386426,131.035209 C38.0248428,131.303034 38.1376867,131.569301 38.2615015,131.830897 C38.3492689,132.101836 38.4621128,132.366546 38.5874949,132.632813 C38.6736951,132.900638 38.7865389,133.165348 38.9103538,133.428501 C38.9275938,133.479886 38.9464011,133.531271 38.9652084,133.587327 C36.4387594,135.549297 35,137.758848 35,140.100755 C35,140.33588 35.01724,140.571005 35.045451,140.804572 L35.045451,156.255862 C35.045451,157.174562 35.2742733,158.068348 35.6943033,158.937221 C35.783638,159.203488 35.8902128,159.469755 36.0171622,159.731351 C36.1064969,159.999176 36.2146389,160.267 36.3415883,160.528596 C36.4324903,160.801092 36.5390651,161.067359 36.6675817,161.333626 C36.7569165,161.599894 36.8634912,161.864604 36.9904406,162.1262 C37.0813426,162.397139 37.1879174,162.664963 37.316434,162.929673 C37.4042015,163.191269 37.509209,163.454422 37.6330238,163.711347 C37.7254931,163.986957 37.8336351,164.257896 37.963719,164.524163 C38.0530538,164.79043 38.1596285,165.05514 38.2865779,165.316736 C38.3759126,165.587675 38.4840547,165.857056 38.6125713,166.121767 C38.701906,166.388034 38.8084808,166.652744 38.9354302,166.91434 C39.0247649,167.185279 39.132907,167.453103 39.2614236,167.717813 C39.3507583,167.985638 39.4573331,168.250348 39.5842825,168.511944 C39.6736172,168.781326 39.780192,169.047593 39.9087086,169.310746 C39.9980433,169.581685 40.1061854,169.847952 40.234702,170.115776 C40.3240368,170.380487 40.4306115,170.645197 40.5575609,170.906793 C40.6468956,171.179288 40.7550377,171.447113 40.8835543,171.711823 C40.972889,171.97809 41.0794638,172.242801 41.2064132,172.504397 C41.2957479,172.775335 41.40389,173.04316 41.5324066,173.30787 C41.6217413,173.575694 41.7283161,173.840404 41.8552655,174.102 C41.9446002,174.372939 42.0527422,174.640764 42.1812589,174.905474 C42.2690263,175.16707 42.3740338,175.428666 42.4978486,175.687147 C42.5887507,175.9612 42.6968927,176.229025 42.8269766,176.496849 C42.9178786,176.769345 43.0244534,177.037169 43.15297,177.30188 C43.2423048,177.568147 43.3488795,177.832857 43.4758289,178.094453 C43.5667309,178.365392 43.6733057,178.633216 43.8018223,178.897926 C43.8911571,179.165751 43.9977318,179.430461 44.1246812,179.692057 C44.2155832,179.962996 44.322158,180.23082 44.4506746,180.49553 C44.5400093,180.763355 44.6465841,181.028065 44.7735335,181.289661 C44.8644355,181.560599 44.9710103,181.826867 45.0995269,182.093134 C45.1888616,182.359401 45.2954364,182.624112 45.4223858,182.885707 C45.5117205,183.155089 45.6198625,183.422913 45.7468119,183.684509 C45.8377139,183.955448 45.9442887,184.223273 46.0728053,184.48954 C46.1621401,184.755807 46.2687148,185.020517 46.3956642,185.282113 C46.3972315,185.288342 46.4019333,185.296127 46.4035006,185.303913 C61.660933,194.609255 79.6281857,200 98.8664992,200 C145.588566,200 184.848831,168.261248 196,125.300341 Z" id="Path" fill="#43A691"></path>
            <path d="M164.998437,151.388535 C164.998437,159.567796 148.1625,166 127.453125,166 C106.740625,166 90,159.567796 90,151.388535 L90,135 L165,135 L165,151.388535 L164.998437,151.388535 Z" id="Path" fill="#FFC066"></path>
            <g id="Group" transform="translate(90.000000, 119.000000)" fill="#F2B155">
                <path d="M74.6238342,15.3733578 C74.6238342,23.7341651 57.8751295,30.9146422 37.273057,30.9146422 C16.6678756,30.9146422 0.0124352332,23.7341651 0.0124352332,15.3733578 C0.0124352332,7.01093578 16.7129534,0.235743119 37.3181347,0.235743119 C57.9202073,0.235743119 74.6238342,7.01255046 74.6238342,15.3733578 Z" id="Path"></path>
                <path d="M62.1435233,30.2380917 C61.1378238,30.5917064 60.1025907,30.925945 59.034715,31.2311193 L59.034715,40.9256514 C60.1305699,40.5914128 61.1813472,40.2410275 62.1435233,39.8696514 L62.1435233,30.2380917 Z" id="Path"></path>
                <path d="M52.8170984,32.7004771 C51.7911917,32.8926239 50.7590674,33.0718532 49.7082902,33.2300917 L49.7082902,42.9553028 C50.7792746,42.7986789 51.8145078,42.6307523 52.8170984,42.4386055 L52.8170984,32.7004771 Z" id="Path"></path>
                <path d="M40.3818653,43.7658716 C41.4466321,43.7319633 42.4740933,43.6738349 43.4906736,43.6060183 L43.4906736,33.9082569 C42.4554404,33.9841468 41.4202073,34.0406606 40.3818653,34.0777982 L40.3818653,43.7658716 Z" id="Path"></path>
                <path d="M24.8378238,33.2252477 C23.7870466,33.0686239 22.7518135,32.8877798 21.7290155,32.6924037 L21.7290155,42.4499083 C22.7300518,42.6404404 23.7683938,42.8115963 24.8378238,42.9649908 L24.8378238,33.2252477 Z" id="Path"></path>
                <path d="M6.18497409,36.5853945 L6.18497409,27.4931376 C5.0642487,26.877945 4.02279793,26.2272294 3.0761658,25.5377615 L3.0761658,32.122422 C3.0761658,33.5239633 4.17202073,35.0788991 6.18497409,36.5853945 Z" id="Path"></path>
                <path d="M12.4025907,39.8777248 C13.3647668,40.2474862 14.4124352,40.5994862 15.511399,40.9337248 L15.511399,31.2117431 C14.4419689,30.9049541 13.4067358,30.5707156 12.4025907,30.2122569 L12.4025907,39.8777248 Z" id="Path"></path>
                <path d="M68.3611399,36.5789358 C70.3740933,35.069211 71.4699482,33.5175046 71.4699482,32.122422 L71.4699482,25.5942752 C70.5202073,26.2788991 69.4787565,26.923156 68.3611399,27.5302752 L68.3611399,36.5789358 Z" id="Path"></path>
                <path d="M34.1642487,34.0777982 C33.1259067,34.0406606 32.0875648,33.9793028 31.0554404,33.9066422 L31.0554404,43.6124771 C32.0689119,43.6802936 33.1010363,43.7351927 34.1642487,43.7707156 L34.1642487,34.0777982 Z" id="Path"></path>
            </g>
            <path d="M159.998437,132.388535 C159.998437,140.567796 143.1625,147 122.453125,147 C101.740625,147 85,140.567796 85,132.388535 L85,116 L160,116 L160,132.388535 L159.998437,132.388535 Z" id="Path" fill="#FFC066"></path>
            <g id="Group" transform="translate(85.000000, 99.000000)" fill="#F2B155">
                <path d="M74.6238342,15.4314862 C74.6238342,23.7922936 57.8751295,30.9727706 37.273057,30.9727706 C16.6678756,30.9727706 0.0124352332,23.7922936 0.0124352332,15.4314862 C0.0124352332,7.0706789 16.7129534,0.29387156 37.3181347,0.29387156 C57.9202073,0.29387156 74.6238342,7.0706789 74.6238342,15.4314862 Z" id="Path"></path>
                <path d="M62.1435233,30.2946055 C61.1378238,30.6482202 60.1025907,30.9824587 59.034715,31.2892477 L59.034715,40.9837798 C60.1305699,40.6479266 61.1813472,40.299156 62.1435233,39.9293945 L62.1435233,30.2946055 Z" id="Path"></path>
                <path d="M52.8170984,32.7569908 C51.7911917,32.952367 50.7590674,33.1315963 49.7082902,33.2882202 L49.7082902,43.0150459 C50.7792746,42.858422 51.8145078,42.6872661 52.8170984,42.4983486 L52.8170984,32.7569908 Z" id="Path"></path>
                <path d="M40.3818653,43.8272294 C41.4466321,43.7933211 42.4740933,43.7351927 43.4906736,43.6657615 L43.4906736,33.9663853 C42.4554404,34.0406606 41.4202073,34.1004037 40.3818653,34.1375413 L40.3818653,43.8272294 Z" id="Path"></path>
                <path d="M24.8378238,33.2833761 C23.7870466,33.1251376 22.7518135,32.9459083 21.7290155,32.7505321 L21.7290155,42.5080367 C22.7300518,42.6969541 23.7683938,42.8697248 24.8378238,43.0215046 L24.8378238,33.2833761 Z" id="Path"></path>
                <path d="M6.18497409,36.6451376 L6.18497409,27.5496514 C5.0642487,26.9376881 4.02279793,26.2853578 3.0761658,25.5942752 L3.0761658,32.1821651 C3.0761658,33.5804771 4.17202073,35.1354128 6.18497409,36.6451376 Z" id="Path"></path>
                <path d="M12.4025907,39.9342385 C13.3647668,40.3056147 14.4124352,40.656 15.511399,40.9934679 L15.511399,31.2714862 C14.4419689,30.9614679 13.4067358,30.6256147 12.4025907,30.2703853 L12.4025907,39.9342385 L12.4025907,39.9342385 Z" id="Path"></path>
                <path d="M68.3611399,36.6386789 C70.3740933,35.1289541 71.4699482,33.5772477 71.4699482,32.1821651 L71.4699482,25.6540183 C70.5202073,26.3354128 69.4787565,26.9796697 68.3611399,27.5884037 L68.3611399,36.6386789 Z" id="Path"></path>
                <path d="M34.1642487,34.139156 C33.1259067,34.103633 32.0875648,34.0406606 31.0554404,33.968 L31.0554404,43.6754495 C32.0689119,43.7416514 33.1010363,43.7981651 34.1642487,43.8320734 L34.1642487,34.139156 Z" id="Path"></path>
            </g>
            <path d="M164.998437,113.388535 C164.998437,121.567796 148.1625,128 127.453125,128 C106.740625,128 90,121.567796 90,113.388535 L90,97 L165,97 L165,113.388535 L164.998437,113.388535 Z" id="Path" fill="#FFC066"></path>
            <g id="Group" transform="translate(90.000000, 82.000000)" fill="#F2B155">
                <path d="M74.6238342,15.4976881 C74.6238342,23.8568807 57.8751295,31.0389725 37.273057,31.0389725 C16.6678756,31.0389725 0.0124352332,23.8584954 0.0124352332,15.4976881 C0.0124352332,7.13688073 16.7129534,0.360073394 37.3181347,0.360073394 C57.9202073,0.360073394 74.6238342,7.13688073 74.6238342,15.4976881 Z" id="Path"></path>
                <path d="M62.1435233,30.3608073 C61.1378238,30.714422 60.1025907,31.0486606 59.034715,31.3554495 L59.034715,41.0499817 C60.1305699,40.7141284 61.1813472,40.3653578 62.1435233,39.9955963 L62.1435233,30.3608073 Z" id="Path"></path>
                <path d="M52.8170984,32.8231927 C51.7911917,33.0185688 50.7590674,33.1977982 49.7082902,33.354422 L49.7082902,43.0812477 C50.7792746,42.9246239 51.8145078,42.7534679 52.8170984,42.5645505 L52.8170984,32.8231927 Z" id="Path"></path>
                <path d="M40.3818653,43.8934312 C41.4466321,43.8595229 42.4740933,43.8013945 43.4906736,43.7319633 L43.4906736,34.0325872 C42.4554404,34.1068624 41.4202073,34.1666055 40.3818653,34.2037431 L40.3818653,43.8934312 Z" id="Path"></path>
                <path d="M24.8378238,33.349578 C23.7870466,33.1913394 22.7518135,33.0121101 21.7290155,32.8167339 L21.7290155,42.5742385 C22.7300518,42.763156 23.7683938,42.9359266 24.8378238,43.0877064 L24.8378238,33.349578 Z" id="Path"></path>
                <path d="M6.18497409,36.7113394 L6.18497409,27.6158532 C5.0642487,27.0038899 4.02279793,26.3515596 3.0761658,25.6604771 L3.0761658,32.248367 C3.0761658,33.6466789 4.17202073,35.2016147 6.18497409,36.7113394 Z" id="Path"></path>
                <path d="M12.4025907,40.0004404 C13.3647668,40.3718165 14.4124352,40.7222018 15.511399,41.0596697 L15.511399,31.3376881 C14.4419689,31.0276697 13.4067358,30.6918165 12.4025907,30.3365872 L12.4025907,40.0004404 Z" id="Path"></path>
                <path d="M68.3611399,36.7048807 C70.3740933,35.195156 71.4699482,33.6434495 71.4699482,32.248367 L71.4699482,25.7218349 C70.5202073,26.4064587 69.4787565,27.0491009 68.3611399,27.6578349 L68.3611399,36.7048807 Z" id="Path"></path>
                <path d="M34.1642487,34.2053578 C33.1259067,34.1698349 32.0875648,34.1068624 31.0554404,34.0342018 L31.0554404,43.7416514 C32.0689119,43.8078532 33.1010363,43.864367 34.1642487,43.8982752 L34.1642487,34.2053578 Z" id="Path"></path>
            </g>
            <path d="M164.998437,93.388535 C164.998437,101.566217 148.1625,108 127.453125,108 C106.740625,108 90,101.567796 90,93.388535 L90,77 L165,77 L165,93.388535 L164.998437,93.388535 L164.998437,93.388535 Z" id="Path" fill="#FFC066"></path>
            <g id="Group" transform="translate(90.000000, 63.000000)" fill="#F2B155">
                <path d="M74.6238342,14.6051111 C74.6238342,22.6597778 57.8751295,29.5773333 37.273057,29.5773333 C16.6678756,29.5773333 0.0124352332,22.6597778 0.0124352332,14.6051111 C0.0124352332,6.55044444 16.7129534,0.0217777778 37.3181347,0.0217777778 C57.9202073,0.0217777778 74.6238342,6.55044444 74.6238342,14.6051111 Z" id="Path"></path>
                <path d="M62.1435233,28.924 C61.1378238,29.2646667 60.1025907,29.5866667 59.034715,29.8822222 L59.034715,39.2217778 C60.1305699,38.8982222 61.1813472,38.5622222 62.1435233,38.206 L62.1435233,28.924 Z" id="Path"></path>
                <path d="M52.8170984,31.2962222 C51.7911917,31.4844444 50.7590674,31.6571111 49.7082902,31.808 L49.7082902,41.1786667 C50.7792746,41.0277778 51.8145078,40.8628889 52.8170984,40.6808889 L52.8170984,31.2962222 Z" id="Path"></path>
                <path d="M40.3818653,41.9611111 C41.4466321,41.9284444 42.4740933,41.8724444 43.4906736,41.8055556 L43.4906736,32.4613333 C42.4554404,32.5328889 41.4202073,32.5904444 40.3818653,32.6262222 L40.3818653,41.9611111 Z" id="Path"></path>
                <path d="M24.8378238,31.8033333 C23.7870466,31.6524444 22.7518135,31.4782222 21.7290155,31.29 L21.7290155,40.6902222 C22.7300518,40.8722222 23.7683938,41.0386667 24.8378238,41.1848889 L24.8378238,31.8033333 Z" id="Path"></path>
                <path d="M6.18497409,35.042 L6.18497409,26.2811111 C5.0642487,25.6915556 4.02279793,25.0631111 3.0761658,24.3973333 L3.0761658,30.744 C3.0761658,32.0895556 4.17202073,33.5875556 6.18497409,35.042 Z" id="Path"></path>
                <path d="M12.4025907,38.2106667 C13.3647668,38.5684444 14.4124352,38.906 15.511399,39.2295556 L15.511399,29.8651111 C14.4419689,29.5664444 13.4067358,29.2428889 12.4025907,28.9006667 L12.4025907,38.2106667 Z" id="Path"></path>
                <path d="M68.3611399,35.0357778 C70.3740933,33.5828889 71.4699482,32.088 71.4699482,30.7424444 L71.4699482,24.4548889 C70.5202073,25.1128889 69.4787565,25.7335556 68.3611399,26.32 L68.3611399,35.0357778 Z" id="Path"></path>
                <path d="M34.1642487,32.6277778 C33.1259067,32.592 32.0875648,32.5328889 31.0554404,32.4613333 L31.0554404,41.8133333 C32.0689119,41.8771111 33.1010363,41.9315556 34.1642487,41.9642222 L34.1642487,32.6277778 Z" id="Path"></path>
            </g>
            <path d="M157.998437,77.388535 C157.998437,85.5677962 141.1625,92 120.453125,92 C99.7421875,92 83,85.5677962 83,77.388535 L83,61 L158,61 L158,77.388535 L157.998437,77.388535 Z" id="Path" fill="#FFC066"></path>
            <path d="M158,60.8026316 C158,68.9784211 141.164062,76 120.454688,76 C99.7421875,76 83,68.9784211 83,60.8026316 C83,52.6268421 99.7875,46 120.5,46 C141.209375,46 158,52.6268421 158,60.8026316 Z" id="Path" fill="#FFDC80"></path>
            <path d="M153,60.2980769 C153,65.9858462 138.850418,71 121.454498,71 C104.058577,71 90,65.9858462 90,60.2980769 C90,54.6103077 104.10251,50 121.5,50 C138.89749,50 153,54.6103077 153,60.2980769 Z" id="Path" fill="#F2B255"></path>
            <path d="M92.5886503,61.4952126 C92.5886503,56.0071254 106.226462,51.5586729 123.050679,51.5586729 C135.571732,51.5586729 146.317502,54.0244934 151,57.5470942 C147.716486,53.2155422 135.75533,50 121.462029,50 C104.637812,50 91,54.4484525 91,59.9365397 C91,61.3611668 91.9301267,62.7374749 93.5779531,64 C92.9558455,63.1910488 92.5886503,62.3524827 92.5886503,61.4952126 Z" id="Path" fill="#E6A951"></path>
            <g id="Group" transform="translate(85.000000, 70.000000)" fill="#F2B155">
                <path d="M60.4752542,5.06451064 C59.4517514,5.4186383 58.3981921,5.75174468 57.3114124,6.06059574 L57.3114124,15.7691915 C58.4266667,15.4344681 59.4960452,15.0835745 60.4752542,14.7116596 L60.4752542,5.06451064 Z" id="Path"></path>
                <path d="M50.9837288,7.53208511 C49.939661,7.72612766 48.8892655,7.90723404 47.819887,8.06408511 L47.819887,17.8050213 C48.9098305,17.6481702 49.9633898,17.478383 50.9837288,17.2859574 L50.9837288,7.53208511 Z" id="Path"></path>
                <path d="M38.3283616,18.616766 C39.4119774,18.5828085 40.4576271,18.5245957 41.4922034,18.4566809 L41.4922034,8.74161702 C40.4386441,8.81761702 39.3850847,8.87421277 38.3283616,8.90978723 L38.3283616,18.616766 Z" id="Path"></path>
                <path d="M22.5091525,8.05761702 C21.439774,7.90076596 20.3862147,7.71965957 19.3453107,7.524 L19.3453107,17.2956596 C20.3640678,17.4864681 21.420791,17.6578723 22.5091525,17.8114894 L22.5091525,8.05761702 Z" id="Path"></path>
                <path d="M3.52610169,11.4226383 L3.52610169,2.31719149 C2.38553672,1.7027234 1.32564972,1.04944681 0.362259887,0.358978723 L0.362259887,6.95642553 C0.362259887,8.35514894 1.47751412,9.91395745 3.52610169,11.4226383 Z" id="Path"></path>
                <path d="M9.85378531,14.7213617 C10.8329944,15.0932766 11.899209,15.4441702 13.0176271,15.7788936 L13.0176271,6.04604255 C11.9292655,5.73557447 10.8757062,5.40085106 9.85378531,5.04348936 L9.85378531,14.7213617 Z" id="Path"></path>
                <path d="M66.8029379,11.4177872 C68.8515254,9.90748936 69.9667797,8.35514894 69.9667797,6.95642553 L69.9667797,0.418808511 C69.000226,1.10280851 67.940339,1.74961702 66.8029379,2.35923404 L66.8029379,11.4177872 Z" id="Path"></path>
                <path d="M32.000678,8.91302128 C30.9439548,8.87582979 29.8872316,8.816 28.8368362,8.74161702 L28.8368362,18.4615319 C29.8682486,18.5294468 30.9186441,18.5844255 32.000678,18.62 L32.000678,8.91302128 Z" id="Path"></path>
            </g>
            <path d="M164.998437,61.388535 C164.998437,69.5677962 148.1625,76 127.453125,76 C106.740625,76 90,69.5677962 90,61.388535 L90,45 L165,45 L165,61.388535 L164.998437,61.388535 Z" id="Path" fill="#FFC066"></path>
            <path d="M165,42.8026316 C165,50.9784211 148.164062,58 127.454688,58 C106.742188,58 90,50.9784211 90,42.8026316 C90,34.6268421 106.7875,28 127.5,28 C148.209375,28 165,34.6268421 165,42.8026316 Z" id="Path" fill="#FFDC80"></path>
            <path d="M157,43.2980769 C157,48.9858462 142.850418,54 125.454498,54 C108.058577,54 94,48.9858462 94,43.2980769 C94,37.6103077 108.10251,33 125.5,33 C142.89749,33 157,37.6103077 157,43.2980769 Z" id="Path" fill="#FFC066"></path>
            <g id="Group" transform="translate(84.000000, 34.000000)" fill="#F2B155">
                <path d="M11.2367876,11.6022289 C11.2367876,6.12983133 25.207772,1.69409639 42.4430052,1.69409639 C55.2699482,1.69409639 66.2782383,4.15286747 71.0751295,7.66539759 C67.711399,3.34622892 55.4580311,0.139879518 40.815544,0.139879518 C23.5803109,0.139879518 9.60932642,4.57561446 9.60932642,10.048012 C9.60932642,11.4685663 10.5621762,12.8409398 12.2502591,14.0998554 C11.6129534,13.2932169 11.2367876,12.4570482 11.2367876,11.6022289 Z" id="Path"></path>
                <path d="M65.6409326,24.3545783 C64.6352332,24.6949518 63.6,25.0151205 62.5321244,25.3119759 L62.5321244,34.643494 C63.6279793,34.3202169 64.6787565,33.984506 65.6409326,33.6270361 L65.6409326,24.3545783 Z" id="Path"></path>
                <path d="M56.3145078,26.7263133 C55.288601,26.9128193 54.2564767,27.0868916 53.2056995,27.2376506 L53.2056995,36.600253 C54.2766839,36.4510482 55.3119171,36.284747 56.3145078,36.1013494 L56.3145078,26.7263133 Z" id="Path"></path>
                <path d="M43.8792746,37.3804699 C44.9440415,37.3478313 45.9715026,37.2918795 46.9880829,37.2266024 L46.9880829,27.8904217 C45.9528497,27.9619157 44.9176166,28.0194217 43.8792746,28.0551687 L43.8792746,37.3804699 Z" id="Path"></path>
                <path d="M28.3352332,27.2314337 C27.284456,27.0806747 26.2492228,26.9066024 25.2264249,26.7185422 L25.2264249,36.1106747 C26.2274611,36.2940723 27.2658031,36.4588193 28.3352332,36.6064699 L28.3352332,27.2314337 Z" id="Path"></path>
                <path d="M9.68238342,30.4673133 L9.68238342,21.7139639 C8.56165803,21.1233614 7.52020725,20.4954578 6.57357513,19.8318072 L6.57357513,26.173012 C6.57357513,27.5189639 7.66943005,29.0141205 9.68238342,30.4673133 Z" id="Path"></path>
                <path d="M15.9,33.6348072 C16.8621762,33.9938313 17.9098446,34.3310964 19.0088083,34.6528193 L19.0088083,25.2964337 C17.9393782,24.9980241 16.9041451,24.6763012 15.9,24.3328193 L15.9,33.6348072 Z" id="Path"></path>
                <path d="M71.8585492,30.4610964 C73.8715026,29.0094578 74.9673575,27.5158554 74.9673575,26.173012 L74.9673575,19.8893133 C74.0176166,20.546747 72.9761658,21.1684337 71.8585492,21.7543735 L71.8585492,30.4610964 Z" id="Path"></path>
                <path d="M37.661658,28.0536145 C36.6233161,28.0178675 35.5849741,27.9603614 34.5528497,27.8873133 L34.5528497,37.2297108 C35.5663212,37.294988 36.5984456,37.3478313 37.661658,37.3804699 L37.661658,28.0536145 Z" id="Path"></path>
                <path d="M29.1777202,81.2358072 L29.1777202,72.0006506 L29.1326425,72.0006506 C29.1326425,65.5413253 18.3668394,60.0658193 3.46476684,58.157241 L3.46476684,60.2507711 C3.46476684,60.7061566 3.5253886,61.1553253 3.62953368,61.5982771 C3.55803109,61.9666265 3.50984456,62.3380843 3.50984456,62.7126506 L3.46476684,62.7126506 L3.46476684,75.5131807 C1.49689119,77.2880964 0.401036269,79.241747 0.401036269,81.3010843 L0.355958549,81.3010843 L0.355958549,97.4260843 C0.355958549,99.4994096 1.47046632,101.457723 3.46476684,103.223313 L3.46476684,116.017627 C3.46476684,121.70606 11.7917098,126.533458 23.9502591,128.872554 C27.2689119,126.723072 29.1777202,124.199024 29.1777202,121.47759 L29.1777202,111.39694 C32.1450777,109.331386 33.8409326,106.944108 33.8409326,104.381205 L33.8409326,88.2562048 L33.7958549,88.2562048 C33.7958549,85.7088434 32.1170984,83.3137952 29.1777202,81.2358072 Z" id="Path"></path>
            </g>
            <path d="M35,157.388535 C35,165.567796 51.8328125,172 72.5453125,172 C93.2546875,172 110,165.567796 110,157.388535 L110,141 L35,141 L35,157.388535 L35,157.388535 Z" id="Path" fill="#FFC066"></path>
            <path d="M35,138.802632 C35,146.978421 51.8328125,154 72.5453125,154 C93.2546875,154 110,146.978421 110,138.802632 C110,130.626842 93.209375,124 72.5,124 C51.7890625,124 35,130.626842 35,138.802632 Z" id="Path" fill="#FFDC80"></path>
            <path d="M43,139.298077 C43,144.985846 57.1495816,150 74.5455021,150 C91.9414226,150 106,144.985846 106,139.298077 C106,133.611923 91.8974895,129 74.498431,129 C57.1025105,129 43,133.613538 43,139.298077 Z" id="Path" fill="#F2B255"></path>
            <path d="M102.41143,141.495213 C102.41143,136.008684 88.7743078,131.558673 71.950942,131.558673 C59.4305222,131.558673 48.6852952,134.024493 44,137.550212 C47.2863826,133.21866 59.2438994,130 73.5395119,130 C90.3628777,130 104,134.450011 104,139.93654 C104,141.361167 103.071438,142.737475 101.419143,144 C102.044253,143.191049 102.41143,142.354041 102.41143,141.495213 Z" id="Path" fill="#E6A951"></path>
            <path d="M42,138.388535 C42,146.567796 58.8328125,153 79.5453125,153 C100.254687,153 117,146.567796 117,138.388535 L117,122 L42,122 L42,138.388535 L42,138.388535 Z" id="Path" fill="#FFC066"></path>
            <path d="M42,122.802632 C42,130.978421 58.8328125,138 79.5453125,138 C100.254688,138 117,130.978421 117,122.802632 C117,114.626842 100.209375,108 79.5,108 C58.7890625,108 42,114.626842 42,122.802632 Z" id="Path" fill="#F2B155"></path>
            <path d="M47,122.298077 C47,127.985846 61.1495816,133 78.5455021,133 C95.9414226,133 110,127.985846 110,122.298077 C110,116.611923 95.8974895,112 78.498431,112 C61.1025105,112 47,116.613538 47,122.298077 Z" id="Path" fill="#F2B255"></path>
            <path d="M107.41143,124.495213 C107.41143,119.008684 93.7743078,114.558673 76.950942,114.558673 C64.4305222,114.558673 53.6852952,117.024493 49,120.550212 C52.2863826,116.21866 64.2438994,113 78.5395119,113 C95.3628777,113 109,117.450011 109,122.93654 C109,124.361167 108.071438,125.737475 106.419143,127 C107.044253,126.191049 107.41143,125.354041 107.41143,124.495213 Z" id="Path" fill="#E6A951"></path>
            <g id="Group" transform="translate(39.000000, 134.000000)" fill="#F2B155">
                <path d="M9.30383069,21.1434667 C10.3018836,21.4744 11.332381,21.7841778 12.3937778,22.0728 L12.3937778,31.1455111 C11.3014815,30.8327111 10.2570794,30.5048 9.30383069,30.1572444 L9.30383069,21.1434667 Z" id="Path"></path>
                <path d="M18.573672,23.4494222 C19.5902646,23.6292444 20.6192169,23.7969778 21.663619,23.9450667 L21.663619,33.0464889 C20.5991323,32.9014222 19.5670899,32.7427556 18.573672,32.5629333 L18.573672,23.4494222 Z" id="Path"></path>
                <path d="M30.9334603,33.8050667 C29.8766984,33.7733333 28.850836,33.7189333 27.8435132,33.6569778 L27.8435132,24.5782222 C28.8693757,24.6492444 29.901418,24.7021333 30.9334603,24.7353778 L30.9334603,33.8050667 Z" id="Path"></path>
                <path d="M46.3831958,23.9390222 C47.4275979,23.7939556 48.4534603,23.6232 49.4731429,23.4403556 L49.4731429,32.572 C48.4766349,32.7518222 47.4476825,32.912 46.3831958,33.0555556 L46.3831958,23.9390222 Z" id="Path"></path>
                <path d="M64.9213333,27.0851556 L64.9213333,18.5760889 C66.0352593,18.0003556 67.0703915,17.3898667 68.0112804,16.7461333 L68.0112804,22.9084444 C68.0112804,24.2185778 66.9220741,25.6737778 64.9213333,27.0851556 Z" id="Path"></path>
                <path d="M58.7429841,30.1663111 C57.7866455,30.5138667 56.7422434,30.8417778 55.653037,31.1545778 L55.653037,22.0576889 C56.7128889,21.7690667 57.7418413,21.4562667 58.7429841,21.1223111 L58.7429841,30.1663111 Z" id="Path"></path>
                <path d="M3.12393651,27.0791111 C1.12319577,25.6677333 0.033989418,24.2155556 0.033989418,22.9084444 L0.033989418,16.7990222 C0.974878307,17.4397333 2.01001058,18.0441778 3.12393651,18.6108444 L3.12393651,27.0791111 Z" id="Path"></path>
                <path d="M37.1133545,24.7384 C38.1453968,24.7036444 39.1743492,24.6462222 40.2033016,24.5767111 L40.2033016,33.6615111 C39.1928889,33.7234667 38.1701164,33.7763556 37.1133545,33.8111111 L37.1133545,24.7384 Z" id="Path"></path>
                <path d="M13.9387513,4.52124444 C14.9368042,4.85217778 15.9673016,5.16195556 17.0286984,5.45057778 L17.0286984,14.5232889 C15.9364021,14.2104889 14.892,13.8825778 13.9387513,13.5350222 L13.9387513,4.52124444 Z" id="Path"></path>
                <path d="M23.2085926,6.8272 C24.2251852,7.00702222 25.2541376,7.17475556 26.2985397,7.32284444 L26.2985397,16.4242667 C25.2340529,16.2792 24.2020106,16.1205333 23.2085926,15.9407111 L23.2085926,6.8272 Z" id="Path"></path>
                <path d="M35.568381,17.1828444 C34.511619,17.1511111 33.4857566,17.0967111 32.4784339,17.0347556 L32.4784339,7.956 C33.5042963,8.02702222 34.5363386,8.07991111 35.568381,8.11315556 L35.568381,17.1828444 Z" id="Path"></path>
                <path d="M51.0181164,7.3168 C52.0625185,7.17173333 53.088381,7.00097778 54.1080635,6.81813333 L54.1080635,15.9497778 C53.1115556,16.1296 52.0826032,16.2897778 51.0181164,16.4333333 L51.0181164,7.3168 Z" id="Path"></path>
                <path d="M69.556254,10.4629333 L69.556254,1.95386667 C70.6701799,1.37813333 71.7053122,0.767644444 72.6462011,0.123911111 L72.6462011,6.28622222 C72.6462011,7.59635556 71.5569947,9.05155556 69.556254,10.4629333 Z" id="Path"></path>
                <path d="M63.3763598,13.5440889 C62.4200212,13.8916444 61.375619,14.2195556 60.2864127,14.5323556 L60.2864127,5.43546667 C61.3462646,5.14684444 62.3752169,4.83404444 63.3763598,4.50008889 L63.3763598,13.5440889 Z" id="Path"></path>
                <path d="M7.75885714,10.4568889 C5.7581164,9.04551111 4.66891005,7.59333333 4.66891005,6.28622222 L4.66891005,0.1768 C5.60979894,0.817511111 6.64493122,1.42195556 7.75885714,1.98862222 L7.75885714,10.4568889 Z" id="Path"></path>
                <path d="M41.7482751,8.11617778 C42.7803175,8.08142222 43.8092698,8.024 44.8382222,7.95448889 L44.8382222,17.0392889 C43.8278095,17.1012444 42.805037,17.1541333 41.7482751,17.1888889 L41.7482751,8.11617778 Z" id="Path"></path>
            </g>
            <path d="M35,122.388535 C35,130.567796 51.8328125,137 72.5453125,137 C93.2546875,137 110,130.567796 110,122.388535 L110,106 L35,106 L35,122.388535 L35,122.388535 Z" id="Path" fill="#FFC066"></path>
            <path d="M35,106.802632 C35,114.978421 51.8328125,122 72.5453125,122 C93.2546875,122 110,114.978421 110,106.802632 C110,98.6268421 93.209375,92 72.5,92 C51.7890625,92 35,98.6268421 35,106.802632 Z" id="Path" fill="#FFDC80"></path>
            <path d="M43,106.298077 C43,111.985846 57.1495816,117 74.5455021,117 C91.9414226,117 106,111.985846 106,106.298077 C106,100.610308 91.8974895,96 74.498431,96 C57.1025105,96 43,100.610308 43,106.298077 Z" id="Path" fill="#FFC066"></path>
            <g id="Group" transform="translate(38.000000, 96.000000)" fill="#F2B155">
                <path d="M7.77672316,10.3015258 C7.77672316,5.03480412 20.7342373,0.733360825 37.1624859,0.349443299 C36.3762712,0.330639175 35.5900565,0.311835052 34.7896045,0.311835052 C17.2492655,0.311835052 3.03096045,4.78408247 3.03096045,10.3015258 C3.03096045,15.8189691 17.2967232,20.6829691 34.8354802,20.6829691 C35.6359322,20.6829691 36.4221469,20.6610309 37.2083616,20.6422268 C20.7769492,20.2269691 7.77672316,15.5666804 7.77672316,10.3015258 Z" id="Path"></path>
                <path d="M9.52632768,24.7258557 C10.5482486,25.0690309 11.6033898,25.3934021 12.6901695,25.689567 L12.6901695,35.0978969 C11.5717514,34.7735258 10.5023729,34.4334845 9.52632768,34.0730722 L9.52632768,24.7258557 Z" id="Path"></path>
                <path d="M19.0178531,27.1171134 C20.0587571,27.3067216 21.1123164,27.4806598 22.1816949,27.6310928 L22.1816949,37.0723299 C21.0917514,36.9218969 20.0350282,36.7542268 19.0178531,36.5708866 L19.0178531,27.1171134 Z" id="Path"></path>
                <path d="M31.6732203,37.8589691 C30.5911864,37.8260619 29.540791,37.7696495 28.5093785,37.702268 L28.5093785,28.2861031 C29.559774,28.3613196 30.6164972,28.417732 31.6732203,28.4537732 L31.6732203,37.8589691 Z" id="Path"></path>
                <path d="M47.4924294,27.6279588 C48.5618079,27.4743918 49.6122034,27.3004536 50.6562712,27.1108454 L50.6562712,36.5802887 C49.6359322,36.7636289 48.5823729,36.929732 47.4924294,37.0785979 L47.4924294,27.6279588 Z" id="Path"></path>
                <path d="M66.4738983,30.8904742 L66.4738983,22.0635052 C67.6144633,21.4696082 68.6743503,20.8365361 69.6377401,20.1658557 L69.6377401,26.5592577 C69.6377401,27.9147216 68.5224859,29.4237526 66.4738983,30.8904742 Z" id="Path"></path>
                <path d="M60.1477966,34.0824742 C59.1685876,34.4428866 58.099209,34.7829278 56.9839548,35.110433 L56.9839548,25.6754639 C58.0691525,25.3745979 59.1227119,25.0502268 60.1477966,24.7039175 L60.1477966,34.0824742 Z" id="Path"></path>
                <path d="M3.19864407,30.8842062 C1.1500565,29.4206186 0.0348022599,27.9147216 0.0348022599,26.5592577 L0.0348022599,20.2238351 C0.99819209,20.8851134 2.0580791,21.5119175 3.19864407,22.1026804 L3.19864407,30.8842062 Z" id="Path"></path>
                <path d="M38.000904,28.4569072 C39.0576271,28.420866 40.1111864,28.3613196 41.1647458,28.2892371 L41.1647458,37.7101031 C40.1301695,37.7743505 39.0829379,37.8291959 38.000904,37.8621031 L38.000904,28.4569072 Z" id="Path"></path>
            </g>
        </g>
        <g id="plant-svgrepo-com-2" transform="translate(9.000000, 44.000000)" fill-rule="nonzero">
            <path d="M103.828028,42.91563 C93.0849626,44.6247764 82.9775561,37.383085 81.2521971,26.7409685 C79.5268382,16.0988521 86.8372226,6.08642111 97.5802877,4.37727472 C128.75679,-0.582576922 152,45 152,45 C152,45 127.543317,39.1430621 103.828028,42.91563 Z" id="Path" fill="#4FC497"></path>
            <path d="M34.2100906,40.6272518 C41.1703663,41.7526077 47.7189863,36.9839507 48.8366454,29.9757423 C49.9543044,22.9675339 45.2182626,16.3738162 38.2579869,15.2484602 C18.0591473,11.9821379 3,42 3,42 C3,42 18.8452034,38.1427883 34.2100906,40.6272518 Z" id="Path" fill="#4FC497"></path>
            <g id="Group" fill="#333333">
                <path d="M154.360895,42.6529853 C154.11838,42.1747207 148.308191,30.8206136 138.532406,19.9150137 C132.714205,13.4245421 126.690775,8.45108059 120.63006,5.13237179 C112.822127,0.8571337 104.939314,-0.683498168 97.1982505,0.554345238 C91.2370676,1.50719322 86.0058946,4.71454212 82.4673956,9.58492674 C80.0145129,12.9613095 78.580994,16.857065 78.2503479,20.9065156 C73.6619781,22.1689011 69.6319781,23.9626236 66.3997813,26.2060806 C64.3000398,27.663576 62.6064414,29.2827427 61.349493,31.0003846 C59.0959841,28.8382234 55.8921372,27.0288553 52.0682903,25.8308929 C51.1952982,19.0701511 45.9530318,13.3846612 38.8572366,12.2498947 C16.6718986,8.70233059 0.987932406,39.0735165 0.330954274,40.3678068 C-0.210775348,41.4350824 -0.0798111332,42.7189423 0.666222664,43.6564515 C1.25879722,44.4006914 2.15335984,44.8188278 3.08151093,44.8188278 C3.32217694,44.8188278 3.565,44.7906044 3.805666,44.7329304 C3.95850895,44.696424 19.2314016,41.0887317 33.8291352,43.4217674 C38.01167,44.0911538 42.2040656,43.0978114 45.6356362,40.627033 C48.5587575,38.522239 50.6273757,35.5578571 51.592505,32.1532509 C56.248668,33.9230449 58.7588668,36.6134753 58.7588668,38.3243681 L58.732674,63.4978388 C58.730825,65.1921658 60.1091849,66.5671383 61.8107952,66.5689789 C61.8120278,66.5689789 61.8129523,66.5689789 61.8141849,66.5689789 C63.5145626,66.5689789 64.8938469,65.197381 64.8956958,63.5045879 L64.9218887,38.3280495 C64.9218887,34.599794 69.6803579,29.9208379 78.6219781,27.1825504 C79.7377932,32.7661905 82.8769284,37.6513004 87.5355567,41.005902 C92.4271471,44.5280037 98.4043539,45.9446978 104.365845,44.9900092 C126.949006,41.3801694 150.650139,46.9625824 150.885875,47.0184158 C151.126233,47.0760897 151.369056,47.1043132 151.61003,47.1043132 C152.538181,47.1043132 153.432744,46.6861767 154.02501,45.9419368 C154.77166,45.0041209 154.902624,43.7208745 154.360895,42.6529853 Z M42.0237972,35.6551053 C39.9255964,37.1659799 37.3633201,37.77125 34.8062823,37.3638507 C25.1552982,35.8204579 15.4445328,36.6257463 9.19091451,37.5233745 C14.0633996,30.141717 23.7747813,18.1019643 35.286998,18.1019643 C36.1411928,18.1019643 37.0074056,18.1685348 37.8800895,18.3078114 C41.4361531,18.8765751 44.230159,21.3157555 45.4165408,24.4531593 C41.9957555,24.0285806 38.5740457,23.9288782 35.2198211,24.1654029 C33.5222167,24.2850458 32.2433897,25.7520513 32.3635686,27.4420833 C32.4837475,29.1324222 33.9560934,30.4129075 35.6549304,30.2855952 C38.9216402,30.0558196 42.2666203,30.1883471 45.608827,30.670293 C44.9959145,32.6698626 43.7546819,34.4086722 42.0237972,35.6551053 Z M103.389006,38.9317857 C99.055169,39.624794 94.7059245,38.5955586 91.1477038,36.0336676 C87.7019583,33.5527656 85.4003777,29.9199176 84.6256859,25.7726053 C84.8312227,25.737326 85.0336779,25.700206 85.2422962,25.6670742 C92.7753579,24.4626694 100.292704,24.4154258 107.584175,25.525957 C109.263598,25.7824222 110.838867,24.6326236 111.096173,22.9576236 C111.353479,21.2826236 110.198529,19.7171429 108.516332,19.4612912 C100.717952,18.2728388 92.6936978,18.3047436 84.6589662,19.5502564 C85.1156461,17.2798031 86.0573559,15.1130403 87.4612922,13.1806548 C90.034662,9.63799908 93.8397117,7.30557692 98.1757058,6.6122619 C120.125,3.10611264 138.380795,28.1185256 145.57335,39.7260302 C136.579344,38.2154625 119.922237,36.2882921 103.389006,38.9317857 Z" id="Shape"></path>
                <path d="M127.749274,25.0237637 C124.532793,23.6267033 121.210924,22.4391712 117.875497,21.4933791 C116.240139,21.0304533 114.533907,21.974098 114.067982,23.6040018 C113.602058,25.2335989 114.551163,26.9306868 116.188062,27.394533 C119.259712,28.2651648 122.31996,29.3594368 125.28499,30.6475916 C125.686203,30.8215339 126.104364,30.9043636 126.515746,30.9043636 C127.703668,30.9043636 128.836123,30.215957 129.341799,29.0624771 C130.021889,27.509881 129.309443,25.7014332 127.749274,25.0237637 Z" id="Path"></path>
            </g>
        </g>
    </g>
</svg>